<svg width="573" height="514" viewBox="0 0 573 514" fill="none" xmlns="http://www.w3.org/2000/svg">
<path d="M209.6 112.795C209.497 112.795 209.429 112.761 209.36 112.658C209.258 112.522 209.292 112.316 209.429 112.214C209.463 112.18 213.464 109.17 218.97 111.838C219.107 111.906 219.175 112.111 219.107 112.248C219.039 112.385 218.833 112.453 218.697 112.385C213.533 109.888 209.976 112.556 209.805 112.693C209.702 112.795 209.668 112.795 209.6 112.795Z" fill="#3797DB"/>
<path d="M296.67 432.754C183.473 373.591 144.863 312.308 132.586 270.654H205.292C204.881 277.186 202.932 283.581 199.649 289.258C198.042 291.926 197.187 295.003 197.187 298.15C197.187 307.657 204.916 315.386 214.423 315.386C223.93 315.386 231.659 307.657 231.659 298.15C231.659 295.003 230.804 291.926 229.162 289.224C225.879 283.581 223.964 277.186 223.554 270.654H296.67V338.401L298.003 338.264C304.501 337.683 310.896 335.665 316.539 332.382C318.864 330.98 321.498 330.228 324.199 330.228C332.338 330.228 338.973 336.862 338.973 345.001C338.973 353.141 332.338 359.775 324.199 359.775C321.498 359.775 318.864 359.023 316.539 357.655C310.896 354.372 304.467 352.354 298.003 351.773L296.67 351.67V432.754Z" fill="#3B77BE"/>
<path d="M299.134 354.406C304.845 355.09 310.282 356.902 315.31 359.809C317.977 361.416 321.055 362.271 324.201 362.271C333.708 362.271 341.437 354.542 341.437 345.035C341.437 335.528 333.708 327.799 324.201 327.799C321.055 327.799 317.977 328.654 315.275 330.296C310.282 333.203 304.845 335.015 299.134 335.699V270.654H385.245L385.279 269.457C385.553 261.044 383.467 252.734 379.26 245.45C377.858 243.124 377.106 240.491 377.106 237.79C377.106 229.65 383.74 223.016 391.879 223.016C400.019 223.016 406.653 229.65 406.653 237.79C406.653 240.491 405.901 243.124 404.533 245.45C400.292 252.768 398.206 261.044 398.48 269.457L398.514 270.654H463.217C450.94 312.273 412.33 373.591 299.134 432.754V354.406Z" fill="#62BDF3"/>
<path d="M298.824 433.267V354.064L299.166 354.098C304.911 354.782 310.417 356.629 315.444 359.536C318.078 361.143 321.087 361.964 324.199 361.964C333.535 361.964 341.127 354.372 341.127 345.035C341.127 335.699 333.535 328.107 324.199 328.107C321.087 328.107 318.078 328.962 315.444 330.535C310.417 333.442 304.946 335.289 299.166 335.973L298.824 336.007V270.346H384.935L384.97 269.457C385.243 261.113 383.191 252.871 378.985 245.621C377.549 243.261 376.796 240.56 376.796 237.79C376.796 229.48 383.567 222.708 391.878 222.708C400.188 222.708 406.959 229.48 406.959 237.79C406.959 240.56 406.207 243.261 404.77 245.587C400.564 252.837 398.512 261.079 398.786 269.423L398.82 270.312H463.626L463.523 270.723C451.348 311.966 412.978 373.591 299.269 432.993L298.824 433.267ZM299.44 354.748V432.241C412.226 373.181 450.562 312.034 462.805 270.962H398.238L398.204 269.457C397.931 260.976 400.017 252.632 404.292 245.279C405.659 243.022 406.378 240.423 406.378 237.79C406.378 229.821 399.88 223.324 391.912 223.324C383.944 223.324 377.446 229.821 377.446 237.79C377.446 240.423 378.164 243.022 379.532 245.313C383.773 252.666 385.893 261.01 385.619 269.491L385.585 270.996H299.44V335.357C304.98 334.639 310.281 332.861 315.137 330.057C317.873 328.415 321.019 327.526 324.199 327.526C333.877 327.526 341.743 335.392 341.743 345.07C341.743 354.748 333.877 362.613 324.199 362.613C320.985 362.613 317.838 361.758 315.137 360.083C310.281 357.244 304.98 355.466 299.44 354.748Z" fill="#96D9C9"/>
<path d="M214.426 312.958C206.286 312.958 199.652 306.323 199.652 298.184C199.652 295.482 200.404 292.849 201.772 290.523C205.5 284.128 207.586 276.844 207.825 269.457L207.859 268.192H131.871C128.69 256.599 127.049 244.937 127.049 233.515C127.049 207.011 135.428 182.183 150.68 163.682C166.377 144.634 188.093 134.135 211.861 134.135C240.963 134.135 262.508 146.275 275.469 156.466C288.26 166.521 295.441 176.746 296.672 178.558V209.884C291.474 209.063 286.515 207.319 281.933 204.686C279.265 203.078 276.188 202.224 273.041 202.224C263.534 202.224 255.805 209.952 255.805 219.459C255.805 228.967 263.534 236.695 273.041 236.695C276.188 236.695 279.265 235.84 281.967 234.199C286.515 231.566 291.474 229.822 296.672 229.001V268.192H220.992L221.026 269.457C221.265 276.844 223.351 284.094 227.045 290.489C228.447 292.815 229.199 295.448 229.199 298.15C229.199 306.323 222.565 312.958 214.426 312.958Z" fill="#00B899"/>
<path d="M212.265 127.603C208.777 128.15 208.982 128.731 208.538 128.8C208.025 128.868 201.732 125.722 201.732 125.722C201.732 125.722 183.163 116.591 182.205 116.044L168.799 99.2524L158.472 103.972C158.472 103.972 173.553 121.823 174.476 122.61C175.434 123.396 202.04 132.698 204.366 133.588C204.366 133.588 206.691 135.708 208.196 137.007C209.701 138.307 211.718 138.786 212.197 139.093C212.265 139.128 213.941 140.017 216.301 140.53C218.319 140.974 216.643 139.606 216.643 139.606C216.643 139.606 213.052 138.102 213.223 137.828C213.36 137.623 215.275 138.546 217.498 139.059C218.079 139.196 218.626 139.333 219.174 139.435C220.541 139.743 221.157 138.957 219.755 138.409C219.276 138.204 218.455 137.931 217.84 137.794C217.19 137.657 216.609 137.315 216.061 137.11C215.001 136.7 214.215 136.426 214.249 136.392C214.317 136.358 214.146 136.118 214.762 136.221C215.514 136.358 216.985 137.042 218.113 137.144C218.729 137.213 220.028 137.452 220.028 137.452C220.028 137.452 222.32 137.657 222.354 137.349C222.388 136.631 220.986 136.255 220.097 136.255C219.55 135.981 218.182 135.776 218.182 135.776C218.182 135.776 215.514 134.716 215.651 134.34C215.719 134.169 217.327 134.408 219.037 134.545C220.849 134.682 222.149 134.682 222.251 134.306C222.388 133.758 220.952 133.553 220.952 133.553C220.952 133.553 219.686 133.382 219.276 133.28C218.797 133.177 217.361 132.733 217.361 132.733C217.361 132.733 212.436 130.92 212.642 130.578C212.813 130.202 213.633 129.45 213.975 129.45C214.317 129.45 214.933 129.791 215.275 129.791C215.617 129.791 216.369 129.723 216.403 129.279C216.472 128.834 214.523 127.945 214.523 127.945C214.523 127.945 213.257 127.432 212.265 127.603Z" fill="#EFAC7F"/>
<path d="M178.138 109.649C178.138 109.649 174.787 112.692 173.419 113.684C172.256 114.505 166.647 117.207 166.647 117.207C166.647 117.207 161.039 108.657 158.611 104.348C155.636 99.1499 153.584 91.421 154.268 91.1817C156.251 90.6003 158.953 90.2241 161.449 91.3869C170.101 95.3539 178.138 109.649 178.138 109.649Z" fill="#3B77BE"/>
<path d="M209.018 132.049C210.489 132.288 212.028 132.014 212.678 130.646C212.849 132.254 210.386 133.075 209.018 132.049Z" fill="#FE875E"/>
<path d="M123.424 240.081L123.048 246.647C122.911 247.468 122.364 249.52 122.364 250.272C122.364 253.111 134.983 247.878 132.179 246.613C131.94 246.51 130.572 245.621 130.503 244.664C130.367 243.159 130.059 240.149 130.059 240.149L123.424 240.081Z" fill="#EFAC7F"/>
<path d="M132.143 246.613C132.143 246.613 129.168 247.468 127.663 247.707C126.158 247.912 124.141 246.1 123.081 246.579C121.884 247.126 121.952 252.016 121.952 252.016C121.952 252.016 137.854 253.418 142.334 251.982C144.078 251.401 138.23 248.631 132.143 246.613Z" fill="#8B7AFC"/>
<path d="M103.109 239.705C103.109 239.705 102.733 246.237 102.733 246.271C102.596 247.092 102.049 249.144 102.049 249.896C102.049 252.734 114.668 247.502 111.864 246.237C111.624 246.134 109.88 244.629 109.778 243.638C109.641 242.133 109.709 239.773 109.709 239.773L103.109 239.705Z" fill="#EFAC7F"/>
<path d="M111.863 246.202C111.863 246.202 108.888 247.057 107.383 247.297C105.879 247.502 103.861 245.689 102.801 246.168C101.604 246.715 101.57 251.606 101.57 251.606C101.57 251.606 117.369 252.256 122.054 251.572C123.867 251.298 117.916 248.22 111.863 246.202Z" fill="#8B7AFC"/>
<path d="M105.98 136.392C105.98 136.392 103.825 147.438 104.714 155.817C105.603 164.195 105.672 193.948 105.672 193.948L102.355 241.552L110.254 241.723C110.254 241.723 119.625 194.119 119.454 195.35C119.283 196.581 122.6 161.835 122.6 161.835L111.417 135.298L105.98 136.392Z" fill="#2D185D"/>
<path d="M108.992 129.279C108.992 129.279 99.2798 139.47 102.905 150.584C104.341 155.064 117.884 197.744 118.055 201.232C118.226 204.72 122.637 243.296 122.637 243.296L131.837 243.022L133.82 200.137L131.187 142.342L125.612 132.596L108.992 129.279Z" fill="#8B7AFC"/>
<path d="M167.881 96.2089C164.7 92.6865 157.792 87.5226 157.792 87.5226C157.792 87.5226 153.689 84.0001 151.979 83.453C149.516 82.598 145.276 80.3409 139.154 89.5745C134.777 96.2089 107.145 130.476 102.596 131.638L132.246 145.762C133.067 139.025 147.704 126.269 149.824 123.875C154.509 118.575 170.89 99.5604 167.881 96.2089Z" fill="#3797DB"/>
<path d="M166.479 81.7429L157.245 87.1462C157.245 87.1462 156.972 95.0119 160.015 97.0296C162.546 98.7395 164.461 94.6357 164.461 94.6357C164.461 94.6357 167.881 89.8821 170.514 88.4116C173.113 86.9411 166.479 81.7429 166.479 81.7429Z" fill="#EFAC7F"/>
<path d="M164.941 85.1969C165.283 86.8385 166.104 89.1981 167.335 91.1474C168.361 90.0531 169.49 88.9588 170.516 88.4116C171.713 87.7276 170.96 86.2571 169.763 84.855C168.122 83.1451 166.48 81.7429 166.48 81.7429L164.702 82.7689C164.599 83.4528 164.839 84.6498 164.941 85.1969Z" fill="#D19369"/>
<path d="M171.301 68.2348C171.13 68.0296 163.572 77.4684 164.495 81.8799C165.419 86.2915 170.035 90.3269 173.216 89.2326C176.738 88.0014 183.304 76.9212 180.945 71.5179C178.585 66.1487 171.301 68.2348 171.301 68.2348Z" fill="#EFAC7F"/>
<path d="M179.61 65.2595C176.293 63.4128 170.889 62.8998 166.888 64.9859C161.93 67.585 160.801 74.0826 162.34 78.0496C163.879 82.0166 162.101 84.2737 162.101 84.2737L164.734 82.7348C164.734 82.7348 166.273 80.3409 166.478 78.4258C166.683 76.5107 169.453 76.8527 170.821 75.9977C171.881 75.348 173.215 73.1593 174.891 72.0649C174.891 72.0649 179.165 71.552 181.252 72.7147C184.842 74.7324 184.329 67.8928 179.61 65.2595Z" fill="#5E2E0D"/>
<path d="M194.248 141.453C190.623 141.009 190.623 141.317 190.178 141.248C189.631 141.18 183.989 136.324 183.989 136.324C183.989 136.324 167.3 122.165 166.411 121.379L157.245 101.134L145.139 102.946C145.139 102.946 156.425 126.748 157.211 127.774C157.998 128.8 182.792 143.266 184.912 144.771C184.912 144.771 186.793 147.506 188.024 149.182C189.255 150.858 191.17 151.918 191.615 152.363C191.683 152.431 193.154 153.765 195.411 154.927C197.36 155.919 195.958 154.107 195.958 154.107C195.958 154.107 192.675 151.61 192.914 151.405C193.085 151.234 194.795 152.705 196.95 153.833C197.497 154.141 198.044 154.414 198.557 154.654C199.891 155.338 200.643 154.722 199.378 153.833C198.933 153.491 198.181 152.978 197.565 152.67C196.915 152.363 196.437 151.85 195.924 151.508C194.932 150.824 194.248 150.345 194.316 150.345C194.385 150.311 194.214 150.003 194.829 150.276C195.548 150.618 196.915 151.713 197.976 152.123C198.591 152.363 199.857 152.978 199.857 152.978C199.857 152.978 201.703 153.218 201.772 153.115C202.148 152.534 201.053 152.089 200.164 151.85C199.686 151.439 198.318 150.824 198.318 150.824C198.318 150.824 195.855 149.045 196.095 148.703C196.197 148.567 197.634 149.558 199.412 150.208C201.43 150.96 202.421 150.55 202.592 150.242C202.866 149.729 201.635 149.456 201.635 149.456C201.635 149.456 199.925 149.045 199.549 148.84C199.07 148.601 193.632 144.497 193.906 144.189C194.18 143.881 195 143.881 195.342 143.984C195.684 144.087 196.3 144.326 196.642 144.429C196.984 144.531 197.599 144.121 197.736 143.71C197.873 143.3 196.573 142.548 196.573 142.548C196.573 142.548 195.308 141.59 194.248 141.453Z" fill="#EFAC7F"/>
<path d="M147.086 112.761C147.086 112.761 150.574 111.666 152.797 110.64C154.302 109.956 160.799 106.708 160.799 106.708C160.799 106.708 157.995 94.875 156.08 90.6345C149.104 75.0401 141.17 85.7783 140.11 88.309C137.716 93.9175 147.086 112.761 147.086 112.761Z" fill="#62BDF3"/>
<path d="M400.907 268.192C400.873 260.634 402.822 253.247 406.618 246.715C408.226 244.048 409.081 240.97 409.081 237.824C409.081 228.317 401.352 220.588 391.845 220.588C382.338 220.588 374.609 228.317 374.609 237.824C374.609 240.97 375.464 244.048 377.105 246.75C380.901 253.282 382.851 260.668 382.816 268.226H299.133V226.197L297.765 226.367C291.712 227.12 285.967 229.035 280.7 232.079C278.375 233.481 275.742 234.233 273.04 234.233C264.901 234.233 258.266 227.599 258.266 219.459C258.266 211.32 264.901 204.686 273.04 204.686C275.742 204.686 278.375 205.438 280.7 206.806C286.001 209.884 291.746 211.799 297.765 212.551L299.133 212.722V178.593C300.364 176.746 307.546 166.555 320.336 156.5C333.263 146.309 354.808 134.169 383.945 134.169C407.679 134.169 429.429 144.668 445.126 163.716C460.378 182.218 468.757 207.011 468.757 233.549C468.757 244.971 467.149 256.633 463.935 268.226H400.907V268.192Z" fill="#8B7AFC"/>
<path d="M464.445 322.875H439.378C438.147 322.875 437.121 321.883 437.121 320.618C437.121 319.387 438.113 318.361 439.378 318.361H464.445C465.677 318.361 466.702 319.353 466.702 320.618C466.702 321.849 465.677 322.875 464.445 322.875Z" fill="#DCD7FF"/>
<path d="M466.908 326.398H436.916C435.685 326.398 434.659 325.406 434.659 324.141C434.659 322.909 435.651 321.884 436.916 321.884H466.908C468.139 321.884 469.165 322.875 469.165 324.141C469.165 325.406 468.139 326.398 466.908 326.398Z" fill="#8B7AFC"/>
<path d="M378.916 476.118C378.916 476.118 376.59 478.409 376.556 479.23C376.488 480.085 376.351 489.045 377.309 489.9C378.266 490.755 381.036 491.336 380.147 492.259C379.463 492.977 374.299 492.806 370.879 492.635C369.888 492.567 368.622 484.462 368.212 483.299C367.63 481.555 365.544 477.793 366.092 476.597C366.331 476.015 368.246 474.681 369.956 473.553C371.769 472.356 373.513 469.723 373.513 469.723L378.916 476.118Z" fill="#EFAC7F"/>
<path d="M409.833 481.726C409.833 481.726 407.781 487.642 407.747 487.677C407.61 488.6 406.995 490.926 406.995 491.78C406.995 494.995 421.255 489.079 418.041 487.642C417.767 487.506 416.844 486.48 416.741 485.385C416.604 483.71 417.938 481.589 417.938 481.589L409.833 481.726Z" fill="#EFAC7F"/>
<path d="M429.496 369.351L434.66 382.722C434.66 382.722 438.011 414.595 436.062 433.678C435.241 441.646 417.492 484.394 417.492 484.394L408.669 483.128L420.468 432.515L416.125 413.159L409.969 374.925L429.496 369.351Z" fill="#2D185D"/>
<path d="M405.183 370.035L400.771 384.911L394.034 429.814L371.258 471.809C371.258 471.809 374.678 477.076 378.371 477.896L410.688 435.456L428.198 382.312L427.582 370.514L405.183 370.035Z" fill="#8B7AFC"/>
<path d="M473.132 345.275C470.499 346.472 470.739 346.985 470.397 347.122C469.986 347.293 464.412 345.515 464.412 345.515C464.412 345.515 447.928 340.419 447.073 340.111L433.223 326.74L425.939 333.237C425.939 333.237 441.294 347.293 442.217 347.84C443.141 348.387 466.019 352.115 468.003 352.525C468.003 352.525 470.26 354.098 471.696 355.022C473.132 355.945 474.842 356.048 475.287 356.219C475.355 356.253 476.826 356.766 478.809 356.8C480.519 356.834 478.912 355.842 478.912 355.842C478.912 355.842 475.766 355.09 475.868 354.817C475.937 354.577 477.612 355.124 479.493 355.158C479.972 355.158 480.451 355.193 480.895 355.193C482.058 355.193 482.366 354.338 481.169 354.098C480.759 353.996 480.04 353.893 479.528 353.893C478.98 353.893 478.467 353.654 477.989 353.585C477.065 353.414 476.381 353.278 476.415 353.243C476.45 353.175 476.279 353.004 476.792 353.004C477.407 353.004 478.707 353.346 479.63 353.243C480.143 353.175 481.203 353.175 481.203 353.175C481.203 353.175 482.947 352.901 482.947 352.765C483.016 352.081 481.716 351.841 481.032 352.046C480.553 351.875 479.425 351.944 479.425 351.944C479.425 351.944 477.099 351.465 477.168 351.055C477.202 350.713 482.947 350.576 482.947 349.892C482.947 349.345 481.237 349.276 481.237 349.276C481.237 349.276 480.177 349.345 479.835 349.345C479.425 349.345 478.194 349.174 478.194 349.174C478.194 349.174 473.953 348.421 474.022 348.045C474.09 347.669 474.603 346.78 474.877 346.746C475.15 346.677 475.697 346.883 475.971 346.814C476.245 346.746 476.552 346.37 476.518 345.959C476.484 345.549 475.048 345.207 475.048 345.207C475.048 345.207 473.885 344.933 473.132 345.275Z" fill="#F8A492"/>
<path d="M438.215 330.125L431.273 339.53C431.273 339.53 425.152 332.177 422.381 328.518C419.03 324.038 415.371 317.848 415.918 317.54C417.457 316.583 419.338 315.591 421.561 316.172C429.324 318.156 438.215 330.125 438.215 330.125Z" fill="#3B77BE"/>
<path d="M370.059 473.484C370.059 473.484 374.915 488.395 377.001 489.113C377.549 489.318 380.661 490.105 381.174 491.302C381.174 491.336 381.208 491.37 381.208 491.404C381.379 492.157 380.729 492.841 379.977 492.841H370.093C370.093 492.841 368.691 486.138 368.144 483.197C368.144 483.197 365.203 476.015 365.545 475.365C365.819 474.716 370.059 473.484 370.059 473.484Z" fill="#8B7AFC"/>
<path d="M406.205 492.807L407.778 487.574C407.778 487.574 411.232 489.045 412.976 488.805C414.686 488.566 418.038 487.574 418.038 487.574C424.877 489.866 430.486 490.96 429.46 492.807H406.205Z" fill="#8B7AFC"/>
<path d="M471.012 349.824C472.277 349.789 473.303 349.242 474.021 348.011C473.782 349.721 472.141 350.439 471.012 349.824Z" fill="#FE875E"/>
<path d="M406.959 315.865C406.959 315.865 398.683 316.754 395.913 317.711C393.588 318.532 390.476 326.056 390.476 326.056C390.476 326.056 402.992 362.272 402.514 368.735C402.035 375.199 400.633 384.808 400.633 384.808C400.633 384.808 425.29 386.381 434.66 382.688C434.66 382.688 431.719 368.017 431.719 364.153C431.719 360.288 430.077 321.781 428.88 319.763C427.684 317.745 425.324 316.583 420.81 315.625C416.296 314.668 406.959 315.865 406.959 315.865Z" fill="#3797DB"/>
<path d="M408.602 305.092L406.96 315.865C406.96 315.865 411.919 321.576 415.51 320.447C418.519 319.524 417.733 315.283 417.733 315.283C417.733 315.283 416.091 309.196 416.57 306.118C417.049 303.109 408.602 305.092 408.602 305.092Z" fill="#EFAC7F"/>
<path d="M416.569 306.152C417.048 303.109 408.601 305.092 408.601 305.092L408.464 305.981C408.703 306.563 409.011 307.076 409.387 307.486C411.268 309.504 414.243 310.701 416.774 310.803C416.535 309.162 416.364 307.418 416.569 306.152Z" fill="#D19369"/>
<path d="M407.233 289.84C406.993 289.737 405.318 302.117 408.498 305.503C411.678 308.888 417.868 310.017 420.091 307.349C422.554 304.374 422.417 291.105 417.492 287.617C412.533 284.129 407.233 289.84 407.233 289.84Z" fill="#EFAC7F"/>
<path d="M415.579 281.017C411.749 281.803 409.287 284.129 408.363 285.086C406.619 285.291 404.26 286.249 401.832 290.25C398.822 295.175 401.045 300.646 404.533 303.314C408.021 305.981 407.987 309.093 407.987 309.093L408.534 307.486C408.945 306.289 409.116 304.99 408.979 303.724C408.911 302.972 408.74 302.151 408.432 301.467C407.577 299.689 410.244 298.492 410.963 296.987C411.544 295.824 411.544 293.225 412.467 291.31L413.527 289.874C413.527 289.874 415.99 287.959 418.418 288.506C420.846 289.053 420.504 280.025 415.579 281.017Z" fill="#282828"/>
<path d="M410.791 299.176C410.826 300.681 410.142 301.912 409.252 301.946C408.363 301.946 407.645 300.749 407.611 299.244C407.577 297.74 408.261 296.509 409.15 296.474C410.039 296.474 410.791 297.671 410.791 299.176Z" fill="#EFAC7F"/>
<path d="M421.993 368.184H471.785V324.992H421.993V368.184Z" fill="#00B899"/>
<path d="M452.981 368.184H496.173V324.992H452.981V368.184Z" fill="#00B899"/>
<path d="M452.136 367.265C449.605 366.512 420.468 359.057 419.374 358.339C418.28 357.621 400.291 340.829 400.291 340.829L410.585 335.392L426.692 351.26C427.787 351.704 448.408 359.57 448.408 359.57C448.408 359.57 454.701 362.135 455.248 362.032C455.727 361.93 456.103 361.519 459.694 360.733C460.72 360.493 462.19 360.938 462.19 360.938C462.19 360.938 464.003 361.485 464.003 361.93C464.003 362.374 463.558 362.682 463.182 362.716C462.806 362.75 462.122 362.443 461.746 362.443C461.369 362.477 460.617 363.263 460.48 363.64C460.378 363.879 465.507 367.607 465.747 368.085C465.849 368.188 471.971 367.778 471.731 368.188C471.731 368.804 471.013 368.633 471.013 368.735C470.911 370.411 462.259 371.642 461.677 371.471C460.685 371.197 452.136 367.265 452.136 367.265Z" fill="#EFAC7F"/>
<path d="M405.831 348.558L417.629 340.829C417.629 340.829 403.95 320.105 399.299 317.951C396.084 316.48 392.083 318.703 390.51 324.141C388.8 330.091 405.831 348.558 405.831 348.558Z" fill="#3B77BE"/>
<path d="M491.838 334.742L489.821 336.657V325.44C489.821 324.277 488.863 323.32 487.7 323.32H470.225C469.062 323.32 468.105 324.277 468.105 325.44V338.47L465.95 334.742L458.563 336.897C458.563 336.897 464.48 348.182 468.105 350.029C472.927 352.491 484.965 352.423 489.821 350.029C492.796 348.558 497.823 339.53 497.823 339.53L491.838 334.742Z" fill="#8B7AFC"/>
<path d="M485.203 351.397C484.861 347.532 482.262 344.489 479.082 344.489C475.902 344.489 473.302 347.532 472.96 351.431C476.722 352.012 481.407 352.012 485.203 351.397Z" fill="#DCD7FF"/>
<path d="M380.969 36.6355C379.191 39.6791 376.01 39.5424 372.59 40.3973C370.299 40.9787 368.897 44.7405 369.102 47.6131C369.649 54.8632 364.007 53.632 359.424 56.6073C348.515 63.7889 355.56 82.4954 367.495 83.6923C369.889 83.9317 372.625 83.5555 374.745 82.3586C376.455 81.401 377.652 80.1699 379.567 79.4859C383.602 78.0496 388.082 77.5708 391.297 74.4588C395.913 70.0472 392.083 67.8585 393.28 64.6439C394.477 61.4293 399.573 63.0366 400.564 56.3679C401.625 49.1521 400.462 42.928 397.794 39.3372C393.383 33.3867 385.654 33.0105 382.816 34.7888C381.926 35.336 381.345 35.9857 380.969 36.6355Z" fill="#5E2E0D"/>
<path d="M431.107 50.1781C430.697 49.289 426.901 51.9222 426.08 51.4435C425.259 50.9305 429.466 46.6899 429.021 45.9376C428.235 44.5696 424.097 50.3149 423.721 49.6994C423.31 49.0838 427.277 42.9623 425.875 42.6203C424.473 42.2783 422.421 49.4258 421.703 48.947C420.985 48.5024 424.199 42.4835 422.831 41.2524C422.113 40.6026 418.659 52.1958 417.394 52.6746C416.129 53.1534 414.726 48.092 413.564 48.2972C412.401 48.5024 417.428 57.6334 417.189 58.3173C416.949 59.0355 412.332 73.9117 409.597 78.4259C407.955 77.6394 406.348 76.8528 404.843 76.1004C404.228 79.5545 404.159 83.1795 403.373 86.5651C408.639 88.8906 413.358 90.5663 414.897 90.0191C419.583 88.3092 421.874 65.6358 422.626 61.3952C423.379 57.1546 425.362 56.3338 426.525 54.1109C427.619 51.9223 431.552 51.1015 431.107 50.1781Z" fill="#EFAC7F"/>
<path d="M392.086 69.2607L384.289 77.1263C384.289 77.1263 394.617 82.7349 403.372 86.5651C404.158 83.1794 404.227 79.5544 404.842 76.1004C397.592 72.4754 392.086 69.2607 392.086 69.2607Z" fill="#DCD7FF"/>
<path d="M440.818 156.808C444.238 160.844 446.735 165.05 447.008 165.597C447.145 165.837 447.179 167.273 447.316 167.547C452.651 171.069 458.294 170.077 462.945 168.641C459.901 167.307 455.626 165.802 455.25 165.153C454.6 164.127 451.693 160.433 448.718 153.799C446.29 156.159 444.033 155.885 440.818 156.808Z" fill="#EFAC7F"/>
<path d="M447.043 165.768C446.565 167.888 446.77 172.232 447.18 172.3C447.693 172.403 465.579 175.07 467.87 172.745C469.238 171.377 466.639 170.282 462.911 168.572C458.295 170.077 447.214 167.204 447.043 165.768Z" fill="#3797DB"/>
<path d="M442.324 172.95C445.744 176.985 448.24 181.192 448.514 181.739C448.651 181.978 448.685 183.415 448.822 183.688C454.157 187.211 459.799 186.219 464.45 184.782C461.407 183.449 457.132 181.944 456.756 181.294C456.106 180.268 453.199 176.575 450.224 169.94C447.83 172.3 445.573 172.027 442.324 172.95Z" fill="#EFAC7F"/>
<path d="M448.583 181.91C448.105 184.03 448.31 188.373 448.72 188.442C449.233 188.544 467.119 191.212 469.41 188.886C470.778 187.518 468.179 186.424 464.451 184.748C459.801 186.219 448.754 183.38 448.583 181.91Z" fill="#3797DB"/>
<path d="M451.079 156.603L441.778 159.818L391.643 118.233C391.643 118.233 403.886 118.062 425.807 120.319C432.373 121.003 451.079 156.603 451.079 156.603Z" fill="#00B899"/>
<path d="M372.834 114.813C372.834 114.813 371.5 118.335 371.329 120.25C370.782 126.44 373.997 134.34 377.451 135.537C381.007 136.768 402.757 142.855 415.855 141.009L444.24 178.866L453.713 174.694L431.518 135.742C431.518 135.742 427.243 129.039 423.721 127.466C420.199 125.893 391.643 118.267 391.643 118.267L387.231 111.837L372.834 114.813Z" fill="#00B899"/>
<path d="M395.918 75.5531C394.345 72.6462 392.738 70.3549 392.738 70.3549C391.096 67.4481 386.89 65.9775 386.89 65.9775C386.89 65.9775 385.488 66.0117 383.88 66.0801C383.778 66.3537 383.675 66.5247 383.573 66.6273C382.957 67.0719 379.469 66.4905 377.246 68.0294C369.722 74.4929 371.808 105.921 372.39 115.839L390.686 116.523C390.686 116.523 392.43 94.7383 397.081 89.2324C400.364 85.4022 398.244 79.862 395.918 75.5531Z" fill="#DCD7FF"/>
<path d="M385.589 55.3419C385.589 55.3419 384.323 64.3703 383.434 66.5932C382.545 68.7818 388.29 73.5012 393.044 74.9033C397.798 76.3397 391.573 70.0472 391.779 67.6875C391.984 65.3278 392.839 54.2134 392.839 54.2134L385.589 55.3419Z" fill="#EFAC7F"/>
<path d="M392.6 57.428C392.737 55.5813 392.839 54.2476 392.839 54.2476L385.555 55.3419C385.555 55.3419 385.384 56.402 385.179 57.9068C388.154 59.6167 390.788 59.0695 392.6 57.428Z" fill="#D19369"/>
<path d="M387.879 38.8242C387.879 38.8242 385.006 39.474 383.228 42.1757C381.45 44.8773 380.253 52.8455 386.066 56.5731C391.88 60.3007 396.428 55.0342 396.497 49.9045C396.599 44.7747 395.471 37.9351 387.879 38.8242Z" fill="#EFAC7F"/>
<path d="M397.832 48.2971C397.319 49.5283 396.361 50.3148 395.643 50.007C394.925 49.6992 394.754 48.4681 395.233 47.237C395.746 46.0058 396.703 45.2193 397.421 45.5271C398.174 45.8348 398.345 47.066 397.832 48.2971Z" fill="#EFAC7F"/>
<path d="M383.127 49.323C383.537 50.6567 383.161 51.9563 382.272 52.2641C381.383 52.5376 380.289 51.7169 379.878 50.3489C379.468 49.0152 379.844 47.7157 380.733 47.4079C381.657 47.1343 382.717 47.9893 383.127 49.323Z" fill="#EFAC7F"/>
<path d="M407.271 78.9731C407.271 78.9731 409.221 79.0415 409.802 78.9731C413.017 78.6653 411.683 83.4188 411.683 83.4188C411.683 83.4188 410.11 81.8799 409.494 81.8799C408.879 81.8799 407.99 82.0509 407.99 82.0509L407.271 78.9731Z" fill="#8B7AFC"/>
<path d="M418.145 110.709C418.145 110.709 419.479 112.761 420.95 111.838C422.42 110.914 424.985 109.136 425.464 110.47C425.943 111.803 425.84 112.932 425.327 113.206C424.814 113.479 420.984 115.565 418.898 115.702C416.812 115.839 415.102 113.89 415.102 113.89L418.145 110.709Z" fill="#3B77BE"/>
<path d="M421.258 115.36C421.19 113.718 420.882 111.94 419.993 110.401C417.736 106.468 408.126 95.867 406.69 95.0462C405.253 94.2255 406.279 91.045 406.279 91.045L400.602 87.9672L397.627 86.3599C397.627 86.3599 390.924 96.6193 390.411 97.5769C389.898 98.5344 390.822 101.715 390.138 103.664C389.454 105.613 390.172 116.215 389.214 117.378C388.462 118.13 387.744 118.233 387.539 118.677C387.436 118.882 387.299 119.224 387.573 119.566C388.359 120.558 392.292 119.737 392.292 119.737C392.326 119.669 393.934 117.412 393.694 116.044C393.455 114.744 394.242 106.845 394.789 106.845C395.268 106.845 397.525 110.367 398.448 111.017C398.551 111.085 398.619 111.119 398.687 111.119C399.337 111.119 403.543 112.043 404.467 112.966C404.706 113.205 404.809 113.889 404.809 114.71C404.809 115.257 404.775 115.907 404.74 116.523C404.638 117.685 404.501 118.917 404.364 119.703C405.356 119.703 406.382 119.703 407.374 119.703C408.194 118.233 409.939 117.207 411.956 117.207C413.837 117.207 415.513 118.13 416.368 119.464C418.044 119.361 418.693 120.182 420.13 120.045C420.164 119.566 421.292 116.01 421.258 115.36Z" fill="#3797DB"/>
<path d="M407.852 79.4518C407.237 78.8363 406.348 78.5969 405.458 78.7337C404.98 78.8021 404.296 78.8363 403.372 78.7679C401.286 78.5627 399.132 78.7337 397.798 80.1016C396.464 81.4353 396.293 86.2573 397.798 88.5144C399.303 90.7715 403.612 91.3528 403.988 92.3788C404.364 93.4047 408.092 93.8835 408.605 92.6524C408.605 92.6524 409.015 92.926 409.596 92.755C410.998 92.3446 411.511 90.9767 410.998 89.5061C410.52 88.0356 408.434 84.9919 408.81 82.2561C408.981 80.9224 408.468 80.0332 407.852 79.4518Z" fill="#3B77BE"/>
<path d="M406.965 88.6853C406.725 88.9247 406.725 89.3351 406.931 89.6086C407.375 90.1216 408.128 90.9424 408.675 91.2844C409.495 91.7631 410.282 89.7454 410.282 88.8563C410.316 87.9671 408.435 87.2148 406.965 88.6853Z" fill="#8B7AFC"/>
<path d="M406.11 103.117C406.076 102.672 405.734 102.33 405.289 102.365C403.067 102.501 401.562 104.519 401.835 106.708C401.835 106.81 401.835 106.947 401.835 107.016C401.767 107.392 401.083 108.691 400.399 110.025C401.733 110.367 403.067 110.675 404.366 111.017C405.324 109.341 406.315 107.768 406.315 107.768L406.11 103.117Z" fill="#3B77BE"/>
<path d="M398.552 113.411C398.552 113.411 397.047 117.925 396.603 119.635C397.834 120.319 398.552 118.951 401.322 119.737C401.39 119.19 402.382 115.839 402.382 115.018C402.382 114.608 403.613 112.727 404.571 111.085C404.639 110.948 404.571 110.812 404.434 110.777C403.237 110.436 401.698 109.82 400.501 109.478C400.364 109.444 400.193 109.512 400.125 109.649C399.304 111.256 398.552 113.411 398.552 113.411Z" fill="#3B77BE"/>
<path d="M395.509 119.19C395.816 118.54 396.671 117.788 397.971 117.788C399.27 117.788 401.322 119.703 401.322 119.703C401.322 119.703 400.707 120.285 399.031 120.285C397.355 120.319 394.927 120.456 395.509 119.19Z" fill="#3B77BE"/>
<path d="M403.1 118.951C403.407 118.301 404.262 117.549 405.562 117.549C406.041 117.549 406.656 117.822 407.203 118.164C408.092 118.712 407.716 120.079 406.69 120.079H406.656C404.946 120.045 402.518 120.182 403.1 118.951Z" fill="#3B77BE"/>
<path d="M415.24 118.951C415.616 118.301 416.642 117.549 418.215 117.549C418.796 117.549 419.514 117.822 420.164 118.164C421.224 118.712 420.78 120.079 419.549 120.079C419.514 120.079 419.514 120.079 419.48 120.079C417.463 120.045 414.521 120.182 415.24 118.951Z" fill="#3B77BE"/>
<path d="M402.244 80.4436C401.628 79.8281 402.004 79.1099 402.346 78.6995C400.602 78.6653 398.926 78.9731 397.798 80.1017C396.464 81.4354 396.293 86.2573 397.798 88.5144C399.166 90.5321 402.757 91.2161 403.748 92.0711C404.774 90.3269 403.201 88.8564 402.825 88.0015C402.449 87.1807 404.672 85.0946 404.945 83.4531C405.219 81.7774 403.167 81.367 402.244 80.4436Z" fill="#8B7AFC"/>
<path d="M399.304 79.1099C399.304 79.1099 397.97 79.5886 396.26 78.9731C394.584 78.3575 392.874 81.4012 392.874 81.4012C392.874 81.4012 394.447 84.7868 395.679 85.6075C396.978 86.4283 399.304 79.1099 399.304 79.1099Z" fill="#3B77BE"/>
<path d="M420.778 107.939C420.778 107.187 418.487 105.032 417.358 105.374C416.298 105.716 411.921 108.452 411.921 108.452L392.667 103.938C392.667 103.938 387.811 92.8575 387.332 83.3162C383.297 83.8633 380.561 84.8551 377.073 86.8044C378.748 95.9011 382.852 110.675 387.366 113.445C389.281 114.608 412.023 112.043 412.023 112.043C412.023 112.043 416.743 112.692 417.939 112.385C422.761 111.051 420.778 109.444 420.778 107.939Z" fill="#EFAC7F"/>
<path d="M387.469 73.125C386.887 70.2523 386.169 67.3797 383.057 66.4563C381.142 65.8749 378.953 66.4221 377.415 67.6874C375.568 69.1922 375.055 71.586 375.089 73.8773C375.123 79.0413 375.465 84.4104 376.389 89.5059C379.877 87.5566 384.972 87.796 388.974 87.2488C389.384 82.6321 388.255 76.8868 387.469 73.125Z" fill="#8B7AFC"/>
<path d="M231.283 56.9494C229.231 67.7902 222.734 90.5321 212.132 90.1901C211.619 75.3481 210.901 62.5921 209.875 58.5567C209.636 57.736 209.362 56.9152 209.02 56.1286C215.62 56.71 219.587 46.6215 221.126 39.5425C219.758 44.0567 216.715 51.2725 212.679 53.6664C210.388 55.0343 208.712 54.3503 208.097 54.1451C204.267 46.9977 197.017 42.2099 193.528 37.9694C190.758 34.5495 192.537 20.9386 193.221 16.6296C192.263 21.6226 191.203 28.9752 191.647 34.105C192.195 39.8845 195.17 40.2264 201.975 47.9895C207.447 54.1109 209.328 57.394 209.533 80.8198C209.123 80.9224 208.576 80.9908 208.028 81.025C202.42 81.1276 197.29 75.69 194.452 70.9365C196.709 75.2455 200.676 80.1358 205.361 81.6405C206.216 81.9141 207.105 82.0509 208.028 82.0851C208.507 82.0851 209.054 82.0509 209.533 81.9825C209.67 84.0344 210.285 124.286 209.738 150.276C211.38 150.311 211.072 149.524 212.714 149.661C212.645 142.616 213.021 116.283 212.269 93.1654C224.615 92.6866 229.813 69.7738 231.283 56.9494Z" fill="#DCD7FF"/>
<path d="M185.9 21.418C188.431 23.4357 192.193 22.9227 192.193 22.9227L183.062 15.6042C183.062 15.6042 183.369 19.4003 185.9 21.418Z" fill="#00B899"/>
<path d="M183.062 15.6037L192.193 22.9221C192.193 22.9221 191.851 19.1603 189.354 17.1084C186.823 15.0907 183.062 15.6037 183.062 15.6037Z" fill="#00B899"/>
<path d="M228.377 88.446C231.626 88.3092 234.122 85.4707 234.122 85.4707L222.427 85.9153C222.393 85.9495 225.128 88.5828 228.377 88.446Z" fill="#00B899"/>
<path d="M222.393 85.9496L234.088 85.505C234.088 85.505 231.353 82.8718 228.138 82.9744C224.923 83.1112 222.393 85.9496 222.393 85.9496Z" fill="#00B899"/>
<path d="M231.766 76.6809C233.989 75.2446 234.57 72.2351 234.57 72.2351L226.568 77.399C226.534 77.399 229.543 78.1172 231.766 76.6809Z" fill="#00B899"/>
<path d="M226.531 77.3999L234.534 72.2359C234.534 72.2359 231.524 71.5178 229.336 72.9541C227.113 74.3562 226.531 77.3999 226.531 77.3999Z" fill="#00B899"/>
<path d="M220.307 76.2372C221.23 78.6995 224.035 79.9306 224.035 79.9306L220.752 71.0049C220.752 71.0049 219.418 73.7749 220.307 76.2372Z" fill="#00B899"/>
<path d="M220.754 71.0049L224.037 79.9306C224.037 79.9306 225.405 77.1606 224.481 74.6983C223.592 72.236 220.754 71.0049 220.754 71.0049Z" fill="#00B899"/>
<path d="M194.384 28.1886C192.401 29.5565 191.956 32.3608 191.956 32.3608L199.138 27.3678C199.138 27.3678 196.368 26.8207 194.384 28.1886Z" fill="#00B899"/>
<path d="M199.138 27.3679L191.991 32.3609C191.991 32.3609 194.761 32.908 196.744 31.5401C198.694 30.1722 199.138 27.3679 199.138 27.3679Z" fill="#00B899"/>
<path d="M221.707 48.1604C219.313 47.9894 217.193 49.8703 217.193 49.8703L225.879 50.5543C225.913 50.5543 224.101 48.3656 221.707 48.1604Z" fill="#00B899"/>
<path d="M225.914 50.5543L217.228 49.8704C217.228 49.8704 219.006 52.059 221.4 52.23C223.794 52.4352 225.914 50.5543 225.914 50.5543Z" fill="#00B899"/>
<path d="M196.025 75.519C193.631 75.3481 191.511 77.229 191.511 77.229L200.197 77.9129C200.232 77.9129 198.419 75.7242 196.025 75.519Z" fill="#00B899"/>
<path d="M200.235 77.913L191.548 77.229C191.548 77.229 193.327 79.4177 195.721 79.5887C198.115 79.7939 200.235 77.913 200.235 77.913Z" fill="#00B899"/>
<path d="M200.537 73.0909C199.647 70.8338 197.048 69.7737 197.048 69.7737L200.229 77.9129C200.229 77.9129 201.426 75.348 200.537 73.0909Z" fill="#00B899"/>
<path d="M200.231 77.9129L197.051 69.7737C197.051 69.7737 195.854 72.3386 196.743 74.5614C197.598 76.8185 200.231 77.9129 200.231 77.9129Z" fill="#00B899"/>
<path d="M217.702 45.0825C217.155 43.6461 215.514 42.928 215.514 42.928L217.463 48.1603C217.463 48.1603 218.249 46.5188 217.702 45.0825Z" fill="#00B899"/>
<path d="M217.465 48.1603L215.515 42.928C215.515 42.928 214.729 44.5353 215.276 46.0058C215.789 47.4422 217.465 48.1603 217.465 48.1603Z" fill="#00B899"/>
<path d="M188.843 33.4551C186.585 32.6001 184.055 33.7971 184.055 33.7971L192.194 36.9091C192.194 36.9091 191.1 34.3101 188.843 33.4551Z" fill="#00B899"/>
<path d="M192.194 36.9092L184.054 33.7971C184.054 33.7971 185.149 36.3962 187.406 37.2511C189.629 38.1061 192.194 36.9092 192.194 36.9092Z" fill="#00B899"/>
<path d="M217.535 149.729H218.8V99.8683C218.8 99.5263 218.527 99.2185 218.151 99.2185C217.809 99.2185 217.501 99.4921 217.501 99.8683V149.729H217.535Z" fill="#00B899"/>
<path d="M202.727 151.542C202.727 151.542 208.575 144.497 213.295 146.515C218.014 148.532 218.766 144.907 221.229 146.104C223.691 147.301 226.769 150.311 226.769 150.311L202.727 151.542Z" fill="#3B77BE"/>
<path d="M214.013 113.958C212.679 113.958 211.106 113.65 209.43 112.761C209.293 112.693 209.225 112.487 209.293 112.351C209.362 112.214 209.567 112.145 209.704 112.214C214.765 114.881 218.424 112.043 218.561 111.906C218.698 111.803 218.903 111.838 219.006 111.94C219.108 112.077 219.074 112.282 218.972 112.385C218.972 112.419 217.022 113.958 214.013 113.958Z" fill="#3797DB"/>
<path d="M209.806 112.829L209.259 112.522C208.848 112.282 205.223 110.094 205.086 108.418C205.052 108.007 205.223 107.665 205.565 107.392C206.181 106.913 206.762 106.776 207.309 106.981C209.053 107.665 209.669 111.735 209.737 112.214L209.806 112.829ZM206.762 107.494C206.523 107.494 206.249 107.631 205.941 107.871C205.77 108.007 205.702 108.178 205.702 108.384C205.77 109.375 207.754 110.846 208.985 111.632C208.711 110.23 208.062 107.973 207.07 107.563C206.967 107.529 206.865 107.494 206.762 107.494Z" fill="#3797DB"/>
<path d="M205.91 116.557C205.704 116.557 205.397 116.489 205.157 116.078C204.952 115.77 204.918 115.428 205.055 115.086C205.533 113.753 208.44 112.727 208.782 112.624L209.535 112.385L209.158 113.069C208.816 113.65 207.175 116.557 205.91 116.557C205.944 116.557 205.91 116.557 205.91 116.557ZM208.167 113.548C207.209 113.958 205.91 114.642 205.636 115.326C205.568 115.497 205.602 115.634 205.67 115.805C205.773 115.976 205.841 115.976 205.91 115.976C206.457 115.941 207.414 114.71 208.167 113.548Z" fill="#3797DB"/>
<path d="M210.08 112.385C210.08 112.693 209.841 112.898 209.567 112.898C209.26 112.898 209.054 112.658 209.054 112.385C209.054 112.077 209.294 111.872 209.567 111.872C209.841 111.872 210.08 112.111 210.08 112.385Z" fill="#3797DB"/>
<path d="M2.0519 324.346L3.8986 325.919L6.15569 324.893L8.10499 326.808L10.1911 324.961L12.4824 327.013L14.6027 325.543L17.1675 327.184L16.552 328.142L14.6369 326.945L12.414 328.484L10.1911 326.5L8.07079 328.381L5.9163 326.261L3.72761 327.287L1.9835 325.816L0.683965 326.774L0 325.85L2.0519 324.346Z" fill="#00B899"/>
<path d="M269.208 31.1296L261.684 29.4197L259.701 34.7546L252.211 33.3183L249.475 38.2086L243.73 37.8325L243.696 40.1579L251.391 40.6367L253.99 36.0199L261.787 37.5247L263.736 32.2581L270.542 33.8313L269.208 31.1296Z" fill="#00B899"/>
<path d="M483.221 152.875L485.957 148.293L483.7 143.437C483.461 142.89 483.939 142.274 484.521 142.411L489.719 143.574L493.618 139.949C494.062 139.538 494.78 139.812 494.849 140.427L495.362 145.728L500.013 148.327C500.56 148.635 500.491 149.387 499.944 149.627L495.054 151.747L494.028 156.979C493.925 157.561 493.173 157.766 492.763 157.321L489.24 153.32L483.939 153.97C483.358 154.072 482.913 153.423 483.221 152.875Z" fill="#DCD7FF"/>
<path d="M35.1907 280.503C35.1907 280.503 36.0456 278.11 38.8499 277.289C41.3805 276.536 43.706 278.007 44.39 280.332C45.2107 283.034 43.8086 286.933 38.5079 291.549C31.5314 290.626 28.2142 288.13 27.3934 285.462C26.7095 283.137 27.838 280.606 30.3345 279.854C33.173 278.964 35.1907 280.503 35.1907 280.503Z" fill="#DCD7FF"/>
<path d="M14.7052 287.822C17.2701 287.48 19.3219 287.069 21.3054 286.591C21.9552 286.42 23.1522 286.351 23.4599 285.667C23.6309 285.325 23.5625 284.949 23.2206 284.71C22.605 284.299 21.6816 284.744 20.9977 284.915C18.98 285.394 16.6887 285.872 14.329 286.214C13.8844 286.283 13.6108 286.796 13.7134 287.206C13.816 287.651 14.2606 287.856 14.7052 287.822Z" fill="#DCD7FF"/>
<path d="M49.6212 284.71C50.5788 284.505 51.5363 284.265 52.5281 284.026C53.4514 283.787 54.58 283.684 55.3665 283.171C55.9479 282.795 55.8111 281.906 55.0588 281.837C54.1012 281.735 53.0753 282.145 52.1519 282.384C51.1944 282.624 50.2368 282.863 49.2793 283.103C48.2533 283.376 48.5953 284.949 49.6212 284.71Z" fill="#DCD7FF"/>
<path d="M26.6759 298.287C27.394 295.961 28.7278 294.969 29.6511 293.909C30.1641 293.362 29.6169 292.541 28.8987 292.849C26.9494 293.67 25.6841 295.893 25.1027 297.808C24.8291 298.8 26.3681 299.278 26.6759 298.287Z" fill="#DCD7FF"/>
<path d="M39.0548 300.68C38.7812 299.689 38.6786 298.697 38.8154 297.671C38.918 297.055 39.6704 295.175 38.4734 295.175C37.3449 295.14 37.1739 297.055 37.1055 297.842C37.0029 298.902 37.1055 300.031 37.4133 301.057C37.7211 302.048 39.3284 301.706 39.0548 300.68Z" fill="#DCD7FF"/>
<path d="M45.756 292.61C46.3715 292.883 47.0213 293.123 47.6369 293.396C48.2524 293.67 48.9022 294.08 49.5862 293.772C49.9623 293.601 50.0307 293.157 49.8939 292.815C49.6546 292.199 48.697 291.994 48.1156 291.755C47.5001 291.515 46.8503 291.242 46.2347 291.002C45.8244 290.831 45.3114 291.173 45.1746 291.549C45.072 292.028 45.3456 292.439 45.756 292.61Z" fill="#DCD7FF"/>
<path d="M27.1189 276.16C23.87 271.714 23.9042 271.68 23.3913 271.373C22.8783 271.065 22.1601 271.544 22.2969 272.159C22.4337 272.775 22.4337 272.672 25.8535 277.323C26.1271 277.699 26.7427 277.665 27.0505 277.357C27.4608 277.049 27.3925 276.536 27.1189 276.16Z" fill="#DCD7FF"/>
<path d="M35.9081 274.006C36.0449 273.117 36.0449 272.193 35.9765 271.304C35.9081 270.449 35.9081 269.184 35.0532 268.773C34.848 268.705 34.5744 268.773 34.4376 268.91C33.8562 269.526 34.2666 270.62 34.335 271.372C34.4034 272.227 34.3692 273.082 34.3008 273.903C34.2666 274.348 34.677 274.724 35.0873 274.758C35.5319 274.792 35.8397 274.45 35.9081 274.006Z" fill="#DCD7FF"/>
<path d="M48.5264 271.783C48.5948 271.372 48.1844 271.099 47.8424 271.03C47.1243 270.928 46.4061 271.783 45.9273 272.262C45.3802 272.809 44.8672 273.39 44.4226 274.006C44.149 274.382 44.32 274.929 44.6962 275.134C45.1066 275.408 45.5512 275.203 45.8248 274.861C47.6373 272.604 48.4238 272.809 48.5264 271.783Z" fill="#DCD7FF"/>
<path d="M547.755 214.467C546.934 220.793 553.535 225.82 559.417 225.444C565.914 225 571.42 219.699 572.344 213.304C573.37 206.396 569.232 200.89 562.802 200.377C556.544 199.898 552.577 205.438 554.355 211.047C555.655 215.082 559.314 216.553 561.161 215.458C562.597 214.603 562.529 212.415 560.785 212.038C560.101 211.867 559.348 212.278 559.006 212.825C557.467 212.209 556.031 209.439 557.023 206.43C558.288 202.6 563.144 202.36 566.154 204.173C569.984 206.464 570.6 211.354 569.197 215.253C567.727 219.357 563.691 222.572 559.314 222.913C554.355 223.255 549.978 219.459 549.568 214.501C549.465 213.304 547.892 213.338 547.755 214.467Z" fill="#DCD7FF"/>
<path d="M38.8487 351.02C38.4383 354.269 41.8239 356.834 44.8334 356.629C48.1506 356.389 50.989 353.688 51.4678 350.405C51.9808 346.882 49.8605 344.044 46.5775 343.77C43.3628 343.531 41.3451 346.369 42.2685 349.242C42.9183 351.294 44.7992 352.08 45.7567 351.499C46.5091 351.054 46.4407 349.926 45.5515 349.755C45.2095 349.687 44.8334 349.892 44.6282 350.165C43.8416 349.858 43.0892 348.421 43.6022 346.882C44.252 344.933 46.7143 344.796 48.2874 345.72C50.2367 346.882 50.5445 349.413 49.8263 351.396C49.0739 353.483 47.022 355.158 44.765 355.295C42.2343 355.466 39.9772 353.517 39.772 350.986C39.7036 350.405 38.9171 350.439 38.8487 351.02Z" fill="#00B899"/>
<path d="M54.3765 210.431L54.3423 204.344L49.3152 200.924C48.7338 200.548 48.8706 199.659 49.5204 199.454L55.2999 197.538L56.9756 191.691C57.1808 191.041 58.0357 190.87 58.4461 191.417L62.0711 196.307L68.1584 196.102C68.8424 196.068 69.2528 196.854 68.8766 197.436L65.3542 202.395L67.4403 208.106C67.6797 208.755 67.0641 209.405 66.4143 209.2L60.6348 207.353L55.8471 211.081C55.1631 211.491 54.3765 211.115 54.3765 210.431Z" fill="#3797DB"/>
<path d="M494.816 285.496C494.611 282.692 496.731 280.264 499.536 280.093C502.34 279.888 504.768 282.008 504.939 284.812C505.144 287.617 503.024 290.045 500.22 290.216C497.45 290.387 495.022 288.301 494.816 285.496Z" fill="#62BDF3"/>
<path d="M503.433 299.825C503.125 298.355 502.954 296.782 502.442 295.345C501.997 294.114 500.116 294.491 500.184 295.824C500.287 297.432 500.8 299.073 501.142 300.646C501.279 301.296 502.134 301.57 502.681 301.399C503.365 301.125 503.57 300.475 503.433 299.825Z" fill="#62BDF3"/>
<path d="M512.122 293.533C510.446 292.541 508.976 291.31 507.402 290.147C506.205 289.224 504.872 290.797 505.863 291.892C507.3 293.465 509.181 294.662 510.993 295.756C511.575 296.098 512.361 295.756 512.635 295.209C513.011 294.559 512.703 293.875 512.122 293.533Z" fill="#62BDF3"/>
<path d="M508.94 284.436C508.564 284.744 508.495 285.189 508.735 285.599C509.316 286.625 510.752 286.591 511.778 286.556C512.838 286.522 513.933 286.317 514.924 285.941C516.429 285.428 515.608 283.102 514.104 283.615C511.163 284.641 510.034 283.547 508.94 284.436Z" fill="#62BDF3"/>
<path d="M507.331 274.587C505.86 276.742 504.629 277.494 504.834 278.657C504.937 279.341 505.484 279.683 506.168 279.546C506.955 279.375 507.399 278.52 507.878 277.939C508.323 277.357 508.767 276.81 509.178 276.194C509.554 275.647 509.588 274.929 509.041 274.45C508.596 274.074 507.707 274.04 507.331 274.587Z" fill="#62BDF3"/>
<path d="M501.552 274.211C501.073 272.911 500.971 272.433 500.355 271.817C499.808 271.304 498.714 271.612 498.611 272.398C498.509 273.322 498.714 273.63 499.227 275.032C499.466 275.647 500.15 275.989 500.8 275.784C501.45 275.545 501.792 274.826 501.552 274.211Z" fill="#62BDF3"/>
<path d="M495.362 277.357C493.241 275.75 492.797 275.271 491.976 275.374C491.497 275.442 490.95 275.887 491.053 276.434C491.258 277.46 491.839 277.733 493.789 279.17C494.302 279.546 495.02 279.58 495.499 279.067C495.875 278.588 495.875 277.767 495.362 277.357Z" fill="#62BDF3"/>
<path d="M486.779 284.778C485.924 285.223 486.266 286.659 487.189 286.796C488.044 286.898 488.386 286.762 492.626 286.009C493.276 285.907 493.823 285.428 493.755 284.71C493.721 284.094 493.105 283.444 492.455 283.581C488.078 284.334 487.634 284.334 486.779 284.778Z" fill="#62BDF3"/>
<path d="M493.413 291.72C491.088 293.977 490.746 293.567 489.856 294.935C489.446 295.551 490.13 296.576 490.848 296.44C491.772 296.269 492.045 296.098 493.242 295.14C493.96 294.593 494.644 293.977 495.294 293.362C495.773 292.883 495.636 292.028 495.157 291.618C494.61 291.105 493.892 291.242 493.413 291.72Z" fill="#62BDF3"/>
<path d="M96.5757 489.079H101.534V225.342C101.534 223.974 100.406 222.845 99.038 222.845C97.6701 222.845 96.5415 223.974 96.5415 225.342V489.079H96.5757Z" fill="#3797DB"/>
<path d="M130.127 489.079H135.085V220.896C135.085 219.528 133.991 218.399 132.589 218.399C131.221 218.399 130.093 219.528 130.093 220.896V489.079H130.127Z" fill="#3797DB"/>
<path d="M134.26 251.469H100.096V254.444H134.26V251.469Z" fill="#3797DB"/>
<path d="M134.26 291.344H100.096V294.319H134.26V291.344Z" fill="#3797DB"/>
<path d="M134.26 331.219H100.096V334.195H134.26V331.219Z" fill="#3797DB"/>
<path d="M134.26 371.095H100.096V374.07H134.26V371.095Z" fill="#3797DB"/>
<path d="M109.642 396.401H88.0627C86.2843 396.401 84.848 397.838 84.848 399.616V411.722H88.4388V400.232H109.608V396.401H109.642Z" fill="#13375B"/>
<path d="M113.743 388.228L107.074 381.183C107.074 381.183 99.9268 385.116 91.5824 388.878C89.2911 384.876 85.5635 371.744 85.3583 371.129C85.1531 370.513 89.7357 362.613 88.7098 362.408C87.6838 362.203 86.3501 366.615 85.2557 366.17C84.1614 365.725 81.3913 355.5 80.7416 356.047C79.5104 357.107 82.2121 362.408 81.5623 362.784C80.9126 363.161 79.271 356.902 78.0399 357.176C76.8088 357.449 80.126 362.887 79.784 363.4C79.4078 363.913 75.9196 358.817 75.2014 359.98C74.8253 360.63 78.4161 364.426 77.6637 364.87C76.9114 365.281 73.6625 362.887 73.2863 363.674C72.9102 364.46 76.33 365.247 77.2875 367.23C78.2451 369.214 79.955 369.966 80.5364 373.694C81.1177 377.421 82.6909 397.29 86.7263 398.898C90.2487 400.3 113.743 388.228 113.743 388.228Z" fill="#EFAC7F"/>
<path d="M175.408 479.879C175.921 476.117 175.887 469.209 175.613 461.891C178.896 461.72 181.666 461.515 184.915 461.31C183.547 470.646 182.624 480.255 182.624 480.255L182.863 482.102L183 487.574L164.499 487.676C164.499 487.676 168.398 485.932 173.869 482.512C174.245 482.273 175.169 481.487 175.408 479.879Z" fill="#EFAC7F"/>
<path d="M183.511 488.737L163.984 488.976C163.266 488.908 163.095 488.326 163.334 487.984C163.847 487.266 166.07 486.719 168.566 485.556C172.978 486.001 182.143 483.025 182.861 482C183.272 484.017 183.887 488.634 183.511 488.737Z" fill="#8B7AFC"/>
<path d="M208.575 476.015C207.036 472.561 203.377 466.679 199.273 460.626C201.974 458.745 204.642 456.864 207.309 454.949C211.071 463.601 214.936 472.492 214.936 472.492L216.098 473.929L219.074 478.511L203.411 488.395C203.411 488.395 205.805 484.872 208.643 479.093C208.848 478.682 209.225 477.485 208.575 476.015Z" fill="#EFAC7F"/>
<path d="M219.893 479.674L203.649 489.763C202.999 490.07 202.555 489.694 202.589 489.25C202.623 488.36 204.265 486.753 205.77 484.428C209.737 482.513 215.926 475.057 215.995 473.826C217.397 475.331 220.167 479.4 219.893 479.674Z" fill="#8B7AFC"/>
<path d="M200.949 323.559C202.385 316.514 197.871 309.504 191.476 306.87C191.51 302.869 190.211 297.774 187.475 295.004C182.072 289.566 171.744 287.685 167.777 294.593C162.51 297.568 158.372 303.998 159.945 309.88C154.85 315.146 156.799 324.688 164.22 329.202C164.118 335.118 167.23 341 172.394 343.531C173.625 344.146 175.574 345.001 175.813 345.241C175.506 344.933 179.644 356.526 192.571 351.225C205.771 345.822 209.533 330.604 200.949 323.559Z" fill="#5E2E0D"/>
<path d="M175.062 474.579C176.669 465.687 171.095 443.629 167.709 433.951C164.187 423.863 161.93 381.217 161.93 381.217L165.931 376.532L182.278 375.541C182.278 375.541 175.336 396.914 175.336 404.233C175.336 411.586 178.721 430.531 182.688 440.38C186.347 449.477 184.843 468.56 183.714 474.818C180.739 475.331 177.969 475.16 175.062 474.579Z" fill="#00B899"/>
<path d="M186.416 377.524C187.168 378.276 191.545 383.474 191.545 387.099C191.545 390.724 183.269 423.452 185.253 425.436C187.236 427.419 194.589 432.378 199.274 439.286C203.241 445.1 212.304 461.959 214.014 465.961C210.594 468.32 207.619 469.415 204.199 470.577C203.652 467.602 176.874 438.089 173.831 431.933C170.787 425.778 169.111 397.564 167.572 393.802C166.034 390.04 161.896 380.533 161.896 380.533L186.416 377.524Z" fill="#00B899"/>
<path d="M162.546 353.414C162.546 353.414 152.457 364.939 141.274 369.248C139.53 369.932 138.025 371.266 138.025 371.266C138.025 372.428 140.111 371.573 140.111 371.573C140.111 371.573 139.393 372.702 139.77 374.104C140.146 375.506 142.574 374.583 143.907 374.583C144.523 374.583 147.635 371.095 151.841 369.043C156.8 366.615 162.682 364.255 163.4 363.537C164.768 362.237 162.956 353.004 162.546 353.414Z" fill="#EFAC7F"/>
<path d="M183.099 320.994C183.099 320.994 172.942 319.968 167.641 323.354C162.34 326.74 158.955 338.777 158.955 343.907C158.955 349.037 162.785 376.088 161.314 381.217C161.314 381.217 178.106 380.499 183.851 380.499C189.596 380.499 190.759 378.311 190.759 378.311C190.759 378.311 178.824 366.546 178.824 361.417C178.824 356.253 183.099 320.994 183.099 320.994Z" fill="#8B7AFC"/>
<path d="M44.4246 459.497V477.109H46.3397V461.105H58.9588V466.611C54.0685 467.124 50.2725 471.638 50.2725 477.144C50.2725 482.992 54.5814 487.711 59.9164 487.711C65.2513 487.711 69.5603 482.992 69.5603 477.144C69.5603 471.672 65.7301 467.158 60.8739 466.611V461.105H63.5072V459.019H60.8739V452.692H63.5072V450.606H60.8739V443.561H95.4142V440.415H76.3315V422.495C76.3315 417.707 80.7431 412.338 86.6252 412.338H103.04V409.192H86.6252C79.6146 409.192 73.4589 415.382 73.4589 422.461V440.38H60.8739V430.326H58.9588V450.572H52.5637C48.0838 450.606 44.4246 454.607 44.4246 459.497ZM58.9588 459.019H46.3397C46.5791 455.496 49.2807 452.692 52.5637 452.692H58.9588V459.019Z" fill="#8B7AFC"/>
<path d="M51.9118 462.267L52.288 469.073C52.4248 469.928 52.972 472.048 52.972 472.835C52.972 475.776 39.874 470.338 42.8151 469.039C43.0887 468.936 44.5934 467.294 44.9696 466.371C45.6535 464.695 45.9271 461.447 45.9271 461.447L51.9118 462.267Z" fill="#F48C7F"/>
<path d="M42.8509 469.038C42.8509 469.038 45.9287 469.928 47.5018 470.167C49.0749 470.406 51.161 468.491 52.2554 469.004C53.4865 469.551 53.5549 474.749 53.5549 474.749C53.5549 474.749 37.0714 475.297 32.3178 474.578C30.4027 474.305 36.5584 471.124 42.8509 469.038Z" fill="#466EB6"/>
<path d="M117.507 447.767H121.132V378.823C121.132 376.498 123.423 374.617 126.193 374.617H158.75C159.605 374.617 160.323 373.933 160.323 373.112C160.323 372.292 159.605 371.608 158.75 371.608H126.193C121.405 371.608 117.507 374.856 117.507 378.823V447.767Z" fill="#8B7AFC"/>
<path d="M100.508 433.302C112.58 433.302 122.361 443.185 122.361 455.325C122.361 467.466 112.58 477.349 100.508 477.349C88.436 477.349 78.6553 467.466 78.6553 455.325C78.6553 443.185 88.4702 433.302 100.508 433.302Z" fill="#8B7AFC"/>
<path d="M73.9371 455.325C73.9371 470.133 85.8381 482.171 100.543 482.171C115.214 482.171 127.15 470.167 127.15 455.325C127.15 440.517 115.249 428.479 100.543 428.479C85.8381 428.514 73.9371 440.517 73.9371 455.325ZM76.4336 455.325C76.4336 441.919 87.2061 431.044 100.509 431.044C113.812 431.044 124.585 441.919 124.585 455.325C124.585 468.731 113.812 479.606 100.509 479.606C87.2403 479.64 76.4336 468.765 76.4336 455.325Z" fill="#8B7AFC"/>
<path d="M117.994 424.761H128.664V383.347H117.994V424.761Z" fill="#DCD7FF"/>
<path d="M82.9315 450.606H73.9031C69.047 450.606 65.08 454.607 65.08 459.531V477.144H67.1319V459.531C67.1319 455.77 70.1755 452.692 73.9031 452.692H82.9315V450.606Z" fill="#DCD7FF"/>
<path d="M51.0738 432.263H79.1848V427.441H51.0738V432.263Z" fill="#8B7AFC"/>
<path d="M82.7611 459.018H66.0724V461.104H82.7611V459.018Z" fill="#DCD7FF"/>
<path d="M120.414 440.415H81.8726V443.561H120.414V440.415Z" fill="#DCD7FF"/>
<path d="M78.5108 432.258H128.68V427.367H78.5108V432.258Z" fill="#8B7AFC"/>
<path d="M127.115 451.461H130.227V382.517C130.227 380.191 132.176 378.31 134.57 378.31H163.843V375.301H134.57C130.466 375.301 127.115 378.55 127.115 382.517V451.461Z" fill="#DCD7FF"/>
<path d="M70.209 477.109C70.209 482.957 75.4071 487.677 81.8706 487.677C88.2999 487.677 93.5322 482.957 93.5322 477.109C93.5322 471.261 88.3341 466.542 81.8706 466.542C75.4413 466.542 70.209 471.296 70.209 477.109Z" fill="#8B7AFC"/>
<path d="M74.7584 477.109C74.7584 480.666 77.9389 483.538 81.8375 483.538C85.7703 483.538 88.9165 480.666 88.9165 477.109C88.9165 473.553 85.7361 470.68 81.8375 470.68C77.9389 470.68 74.7584 473.553 74.7584 477.109Z" fill="#DCD7FF"/>
<path d="M53.4528 409.192C56.8042 405.84 103.758 407.448 103.758 407.448C103.758 407.448 63.9859 417.16 61.6604 418.425C59.3349 419.69 50.6827 462.404 50.6827 462.951C48.2889 462.37 46.8183 462.815 44.3903 462.302C44.8006 454.881 48.0495 414.629 53.4528 409.192Z" fill="#3B77BE"/>
<path d="M58.0356 462.472L58.4118 469.278C58.5486 470.133 59.0957 472.253 59.0957 473.04C59.0957 475.981 45.9978 470.543 48.9389 469.244C49.2124 469.141 51.025 467.568 51.0933 466.576C51.2301 465.037 51.1617 462.575 51.1617 462.575L58.0356 462.472Z" fill="#F7A491"/>
<path d="M48.971 469.244C48.971 469.244 52.0489 470.133 53.622 470.372C55.1951 470.612 57.2812 468.697 58.3755 469.21C59.6067 469.757 59.6751 474.955 59.6751 474.955C59.6751 474.955 43.1915 475.502 38.4379 474.818C36.5228 474.51 42.7127 471.33 48.971 469.244Z" fill="#466EB6"/>
<path d="M111.078 417.091C111.078 417.091 110.668 427.761 107.111 427.864C103.555 428.001 80.8128 428.513 67.9885 427.351L59.3705 465.448L49.2478 464.456C49.2478 464.456 52.2915 439.012 53.3858 429.334C54.4459 419.793 57.5238 411.825 62.9271 411.62C68.2962 411.414 103.726 405.943 103.726 405.943L111.078 417.091Z" fill="#3797DB"/>
<path d="M120.617 367.367C120.617 367.367 126.362 368.838 125.576 380.055C124.789 391.272 118.599 425.231 107.109 427.898C95.6181 430.566 88.1628 406.387 88.1628 406.387C88.1628 406.387 95.4129 403.994 98.4223 392.777C100.508 384.979 106.117 367.436 107.519 366.581C111.007 364.46 120.617 367.367 120.617 367.367Z" fill="#00B899"/>
<path d="M96.5752 442.808H99.6872V422.46C99.6872 417.673 104.475 412.303 110.87 412.303H128.687V409.157H110.87C103.278 409.157 96.5752 415.347 96.5752 422.426V442.808Z" fill="#DCD7FF"/>
<path d="M128.654 483.538C142.498 483.538 153.721 472.208 153.721 458.232C153.721 444.255 142.498 432.925 128.654 432.925C114.81 432.925 103.587 444.255 103.587 458.232C103.587 472.208 114.81 483.538 128.654 483.538Z" fill="#DCD7FF"/>
<path d="M98.1152 458.232C98.1152 475.263 111.795 489.044 128.654 489.044C145.514 489.044 159.193 475.263 159.193 458.232C159.193 441.201 145.514 427.419 128.654 427.419C111.795 427.419 98.1152 441.235 98.1152 458.232ZM101.022 458.232C101.022 442.808 113.402 430.326 128.688 430.326C143.975 430.326 156.355 442.808 156.355 458.232C156.355 473.655 143.975 486.138 128.688 486.138C113.402 486.138 101.022 473.655 101.022 458.232Z" fill="#DCD7FF"/>
<path d="M107.965 458.232C107.965 469.757 117.233 479.093 128.655 479.093C140.077 479.093 149.345 469.757 149.345 458.232C149.345 446.707 140.077 437.371 128.655 437.371C117.233 437.371 107.965 446.707 107.965 458.232Z" fill="#8B7AFC"/>
<path d="M124.005 458.232C124.005 460.831 126.091 462.917 128.656 462.917C131.22 462.917 133.307 460.831 133.307 458.232C133.307 455.633 131.22 453.547 128.656 453.547C126.091 453.547 124.005 455.667 124.005 458.232Z" fill="#DCD7FF"/>
<path d="M36.3943 480.342H67.9935V474.871H36.3943V480.342Z" fill="#8B7AFC"/>
<path d="M50.0485 480.342H67.9684V474.871H50.0485V480.342Z" fill="#DCD7FF"/>
<path d="M82.8976 432.207H80.8115V480.358H82.8976V432.207Z" fill="#DCD7FF"/>
<path d="M80.6382 477.725C80.6382 478.443 81.2196 479.024 81.9035 479.024C82.5875 479.024 83.1689 478.443 83.1689 477.725C83.1689 477.007 82.5875 476.425 81.9035 476.425C81.2196 476.425 80.6382 477.041 80.6382 477.725Z" fill="#8B7AFC"/>
<path d="M117.162 337.307C117.162 337.307 121.198 334.571 122.874 339.359C122.874 339.324 124.31 339.324 124.481 339.393C125.302 339.666 126.122 340.521 126.841 341C129.474 342.676 130.671 345.959 130.808 348.968C130.979 352.628 129.474 355.261 127.08 357.894C126.362 358.681 125.609 359.433 124.686 359.912C123.557 360.493 122.703 360.049 121.642 360.288C120.753 360.493 120.445 361.451 119.42 361.109C117.949 360.63 116.444 358.817 114.632 359.091C112.819 359.365 108.647 357.723 108.647 357.723C103.278 355.637 106.903 345.275 107.929 341.582C108.921 338.128 113.845 336.076 117.162 337.307Z" fill="#282828"/>
<path d="M112.306 360.904L110.904 364.7L110.152 366.82C110.152 366.82 110.084 370.616 110.973 371.608C112.512 373.317 118.77 367.025 118.77 367.025L120.753 355.09L112.306 360.904Z" fill="#EFAC7F"/>
<path d="M120.137 358.92C117.743 362.613 113.64 364.323 110.904 364.7L112.306 360.869L120.787 355.056L120.137 358.92Z" fill="#D19369"/>
<path d="M119.143 342.779C115.962 340.829 111.756 342.3 110.457 345.754C109.875 347.259 109.26 349.14 108.747 351.26C107.515 356.355 109.089 361.93 111.414 362.443C113.74 362.956 120.887 361.075 122.734 353.825C123.862 349.413 122.494 344.831 119.143 342.779Z" fill="#EFAC7F"/>
<path d="M120.887 354.064C120.648 355.192 121.195 356.287 122.118 356.492C123.042 356.697 123.999 355.945 124.239 354.816C124.478 353.688 123.931 352.593 123.007 352.388C122.084 352.183 121.127 352.935 120.887 354.064Z" fill="#EFAC7F"/>
<path d="M113.671 356.184C113.671 356.184 116.749 357.176 116.988 358.304C117.228 359.433 116.852 361.04 115.347 362.306C113.842 363.571 110.627 362.784 109.772 362.1C108.883 361.416 108.234 358.51 109.089 356.868C110.012 355.227 113.671 356.184 113.671 356.184Z" fill="#282828"/>
<path d="M114.699 358.544C114.699 358.544 114.665 359.809 114.255 360.014C113.844 360.22 113.331 360.425 112.853 360.459C112.066 360.527 111.382 360.22 110.972 359.604C110.938 359.536 110.903 359.501 110.869 359.433C110.561 358.817 110.493 357.689 110.493 357.689C110.493 357.689 111.793 357.381 112.545 357.518C113.297 357.621 114.699 358.544 114.699 358.544Z" fill="#EFAC7F"/>
<path d="M147.84 373.147C149.037 371.95 154.68 370.069 158.955 366.991C160.836 365.623 164.461 363.845 168.017 361.861C170.582 363.297 172.942 365.076 174.686 367.23C168.291 370.171 161.349 373.112 160.323 374.172C158.339 376.156 154.885 380.636 154.064 380.636C153.244 380.636 147.122 378.823 146.199 377.934C145.207 377.011 146.609 374.378 147.84 373.147Z" fill="#EFAC7F"/>
<path d="M167.983 361.861C172.429 359.399 176.738 356.697 177.182 354.269C178.003 349.926 174.31 331.219 176.361 327.594C178.413 324.004 183.064 320.994 183.064 320.994C183.817 320.994 186.45 322.601 187.168 325.85C187.92 329.099 186.587 358.168 185.834 360.801C185.492 362.032 180.465 366.991 174.788 369.59C173.113 367.47 170.582 363.297 167.983 361.861Z" fill="#DCD7FF"/>
<path d="M122.121 401.121L104.372 405.772C104.372 405.772 99.14 409.533 96.8146 410.286C94.4549 411.038 91.5822 413.603 92.1636 414.424C92.7108 415.21 95.686 412.509 96.1648 412.611C96.6436 412.68 94.4207 415.894 94.0787 417.98C93.7025 420.067 92.9844 422.118 94.2155 421.947C95.4124 421.776 96.3016 417.057 96.3016 417.057C96.3016 417.057 98.1483 413.5 98.4561 413.911C98.7639 414.321 97.2249 416.783 97.2249 416.783C97.2249 416.783 96.8488 419.417 96.712 420.374C96.6094 421.058 97.2249 423.144 97.7721 422.392C98.0799 421.947 97.9431 420.238 98.3193 419.246C99.0716 417.228 100.337 415.621 100.337 415.621C100.337 415.621 99.0032 421.64 99.824 421.776C100.679 421.913 101.534 416.92 101.534 416.92C101.534 416.92 103.586 412.748 104.475 412.406C105.364 412.03 107.826 410.457 109.742 409.807C111.657 409.157 119.488 411.312 123.01 411.38C126.533 411.414 132.21 409.26 132.689 406.49C132.825 405.635 132.312 404.712 131.526 403.822C129.064 401.223 125.473 400.232 122.121 401.121Z" fill="#EFAC7F"/>
<path d="M120.619 367.367C120.619 367.367 125.988 366.409 130.844 375.164C135.7 383.919 132.554 406.456 132.554 406.456L122.09 401.121L120.619 367.367Z" fill="#00B899"/>
<path d="M144.556 374.925C143.94 374.925 140.623 375.13 140.11 374.617C139.597 374.104 141.82 372.77 142.059 373.01C142.298 373.249 143.222 372.736 143.53 373.044C143.837 373.352 144.795 373.01 145.069 373.283C145.308 373.523 145.171 374.925 144.556 374.925Z" fill="#EFAC7F"/>
<path d="M177.796 311.932C177.796 311.932 176.667 318.156 176.906 320.584C177.146 323.046 176.051 330.946 171.161 330.98C166.271 331.014 169.588 322.773 170.067 320.379C170.511 317.985 171.264 308.683 171.264 308.683L177.796 311.932Z" fill="#EFAC7F"/>
<path d="M170.956 312.205C171.024 310.188 171.4 308.546 171.4 308.546L177.795 311.932C177.795 311.932 177.556 313.197 177.317 314.839C174.478 315.454 172.187 314.086 170.956 312.205Z" fill="#D19369"/>
<path d="M177.935 293.875C177.935 293.875 180.67 294.867 182.175 297.842C183.68 300.817 184.159 309.196 178.14 312.41C172.087 315.625 168.12 309.709 168.496 304.374C168.872 299.073 170.548 292.131 177.935 293.875Z" fill="#EFAC7F"/>
<path d="M166.718 302.938C166.547 304.306 167.06 305.502 167.812 305.571C168.564 305.639 169.317 304.579 169.488 303.211C169.659 301.843 169.146 300.646 168.393 300.578C167.607 300.475 166.889 301.535 166.718 302.938Z" fill="#EFAC7F"/>
<path d="M181.664 305.229C181.116 306.563 181.39 307.965 182.245 308.341C183.1 308.751 184.229 307.965 184.742 306.631C185.289 305.297 185.015 303.895 184.16 303.519C183.339 303.143 182.211 303.895 181.664 305.229Z" fill="#EFAC7F"/>
<path d="M478.366 65.9436L490.164 82.1194L497.962 73.5698L478.366 65.9436Z" fill="#8B7AFC"/>
<path d="M499.022 69.124L497.962 73.5698L478.366 65.9436L499.022 69.124Z" fill="#DCD7FF"/>
<path d="M497.962 75.2797L478.366 65.9436L496.594 82.1194L497.962 75.2797Z" fill="#DCD7FF"/>
<path d="M509.862 94.6702C509.726 94.6702 506.271 94.2941 501.928 91.5924C497.551 88.8565 495.909 84.103 495.909 83.3506C495.909 83.0428 496.149 82.8376 496.422 82.8376C496.696 82.8376 496.935 83.077 496.935 83.3506C496.97 83.8636 498.372 88.1726 502.441 90.7033C506.579 93.2681 509.897 93.6443 509.931 93.6443C510.204 93.6785 510.444 93.9179 510.409 94.2257C510.409 94.4993 510.136 94.7044 509.862 94.6702ZM496.935 83.3164C496.935 83.3164 496.935 83.3506 496.935 83.3164C496.935 83.3506 496.935 83.3164 496.935 83.3164Z" fill="#62BDF3"/>
<path d="M531.271 99.458C525.149 98.2269 519.336 95.9698 513.898 92.7552C509.452 90.0877 505.862 86.0523 501.313 83.8294C501.04 83.6926 500.937 83.3848 501.074 83.1112C501.211 82.8377 501.518 82.7351 501.792 82.8719C506.511 85.1973 510.068 89.2327 514.479 91.866C519.78 95.0122 525.526 97.2351 531.51 98.4321C533.699 98.8766 536.332 99.0476 539.273 98.9108C539.581 98.9108 539.82 99.116 539.82 99.4238C539.82 99.7316 539.615 99.971 539.307 99.971C536.64 100.074 533.836 99.971 531.271 99.458Z" fill="#62BDF3"/>
<path d="M272.799 284.778C272.799 284.778 259.838 261.66 256.691 256.736C253.545 251.811 245.337 232.284 245.03 231.497C244.722 230.711 250.672 221.477 249.373 221.17C248.039 220.862 246.569 226.06 245.166 225.41C243.764 224.795 239.626 212.278 238.806 212.928C237.301 214.091 241.028 220.691 240.242 221.101C239.421 221.512 236.993 213.851 235.42 214.091C233.847 214.33 238.429 221.135 237.985 221.717C237.54 222.332 232.787 215.903 231.932 217.271C231.453 218.023 236.309 222.879 235.386 223.324C234.462 223.769 230.153 220.657 229.675 221.546C229.23 222.435 233.676 223.7 235.01 226.128C236.343 228.556 238.6 229.617 239.558 234.131C240.516 238.645 241.918 254.957 246.705 263.097C251.527 271.236 262.129 289.258 262.129 289.258L272.799 284.778Z" fill="#EFAC7F"/>
<path d="M330.253 396.402C330.253 396.402 329.193 395.102 328.885 394.623C328.509 394.076 327.517 392.366 327.517 392.366C327.517 392.366 324.371 386.211 324.85 386.04C325.328 385.834 326.457 386.587 326.765 386.894C327.107 387.202 327.517 387.544 327.825 387.852C328.167 388.16 328.646 388.16 329.056 387.784C329.466 387.407 328.44 385.869 327.962 385.424C326.525 384.022 321.909 380.978 321.43 380.67C320.883 380.26 317.36 368.598 315.821 364.7C313.53 358.236 311.478 351.499 311.239 350.815L309.837 321.473L298.893 317.814C298.893 317.814 300.056 350.371 300.295 352.012C300.398 352.799 306.895 367.333 306.895 367.333C310.555 374.309 313.769 380.431 314.351 381.628C314.351 381.628 315.137 385.663 315.513 388.297C315.855 390.896 317.258 393.153 317.463 393.871C317.497 393.973 318.078 396.47 319.891 399.069C321.464 401.292 320.985 398.453 320.985 398.453C320.985 398.453 318.831 393.768 319.241 393.666C319.549 393.597 320.575 396.196 322.25 398.693C322.695 399.343 323.105 399.958 323.516 400.54C324.576 402.044 325.807 401.839 324.952 400.061C324.644 399.445 324.131 398.419 323.653 397.735C323.14 397.017 322.9 396.162 322.558 395.478C321.874 394.11 321.361 393.153 321.43 393.153C321.532 393.153 321.567 392.777 322.045 393.461C322.627 394.247 323.482 396.231 324.439 397.359C324.986 397.975 326.012 399.377 326.012 399.377C326.012 399.377 327.962 401.429 328.098 401.36C328.885 400.916 327.927 399.035 327.072 398.282C326.799 397.53 325.636 396.094 325.636 396.094C325.636 396.094 323.995 392.674 324.473 392.435C324.884 392.229 330.424 399.616 331.176 399.103C331.826 398.693 330.253 396.402 330.253 396.402Z" fill="#EFAC7F"/>
<path d="M310.658 282.145C310.932 275.75 309.974 269.423 307.136 263.473C304.674 258.343 298.586 255.436 293.012 255.436C275.366 255.402 273.109 278.725 261.892 287.719C258.472 290.455 254.607 292.712 251.393 295.653C239.389 306.597 244.793 326.842 255.804 336.452C263.431 343.121 275.468 346.882 284.873 341.684C289.797 338.983 293.525 334.469 296.193 329.51C299.954 322.499 302.382 314.394 305.084 306.905C307.888 298.937 310.282 290.661 310.658 282.145Z" fill="#282828"/>
<path d="M255.496 488.121C255.496 488.121 254.265 496.739 252.111 499.509C251.392 500.433 250.093 501.63 249.204 503.305C247.87 505.939 248.588 509.837 249.58 511.992C250.093 513.086 249.546 513.086 250.709 513.462C254.128 514.522 257.753 512.744 259.224 509.461C260.045 507.649 260.763 505.186 260.9 502.143C261.276 494.345 263.704 490.344 263.704 490.344L255.496 488.121Z" fill="#EFAC7F"/>
<path d="M292.908 492.054C292.908 492.054 293.66 501.766 293.044 504.913C292.702 506.588 290.856 510.077 291.711 511.684C292.566 513.257 293.523 513.667 293.523 513.667L315.615 514.009C316.812 514.044 316.026 513.257 315.068 512.539C313.495 511.376 312.195 510.59 307.134 508.162C306.792 507.991 305.595 507.238 305.151 506.965C304.056 506.281 302.928 505.221 302.004 504.195C300.431 502.416 300.294 493.901 300.294 493.901L292.908 492.054Z" fill="#EFAC7F"/>
<path d="M310.178 363.058C310.178 363.058 312.948 378.824 311.136 389.151C309.323 399.479 300.534 495.234 300.534 495.234L290.788 495.782C290.788 495.782 288.736 455.804 289.112 450.23C289.488 444.655 292.361 435.353 292.361 435.353L291.403 403.07L303.681 360.664L310.178 363.058Z" fill="#2D185D"/>
<path d="M281.555 359.741C281.555 359.741 273.895 371.266 272.048 380.807C270.235 390.348 273.382 419.656 269.859 432.139C267.944 438.91 260.763 449.34 259.668 458.095C258.574 466.85 254.265 489.729 254.265 489.729L264.011 491.644L286.651 434.464L304.4 382.791L308.948 356.184L281.555 359.741Z" fill="#8B7AFC"/>
<path d="M287.746 294.183C287.746 294.183 277.589 293.533 273.588 297.911C269.587 302.288 282.514 336.862 283.232 342.403C283.95 347.977 279.504 362.75 279.504 362.75C279.504 362.75 303.375 367.538 310.18 363.024C310.18 363.024 310.898 323.046 310.18 319.045C309.462 315.078 303.375 298.902 301.904 297.329C300.434 295.79 287.746 294.183 287.746 294.183Z" fill="#00B899"/>
<path d="M291.132 280.64C291.132 280.64 291.064 280.948 290.996 281.461C290.551 283.889 288.807 291.994 287.61 294.217C286.174 296.919 292.466 305.468 298.553 304.408C300.366 304.101 297.015 296.543 297.186 295.722C297.493 294.183 297.904 292.097 298.348 289.942C298.588 288.745 298.827 287.514 299.066 286.352C299.716 283.069 300.229 280.401 300.229 280.401L291.132 280.64Z" fill="#EFAC7F"/>
<path d="M290.994 281.461C291.097 280.948 291.131 280.64 291.131 280.64L300.227 280.401C300.227 280.401 299.714 283.069 299.065 286.352C298.825 287.514 298.586 288.711 298.347 289.908C296.944 289.703 295.474 289.019 294.003 287.754C292.396 286.352 291.336 284.676 290.72 282.863C290.823 282.35 290.926 281.837 290.994 281.461Z" fill="#D19369"/>
<path d="M297.253 260.053C297.253 260.053 292.979 259.574 290.277 263.028C287.609 266.482 284.703 277.186 291.371 283.034C298.04 288.848 304.606 282.282 305.598 275.271C306.59 268.295 306.966 259.814 297.253 260.053Z" fill="#EFAC7F"/>
<path d="M307.579 275.169C306.792 276.708 305.458 277.563 304.603 277.084C303.748 276.605 303.714 274.963 304.501 273.39C305.287 271.851 306.621 270.996 307.476 271.475C308.331 271.988 308.365 273.63 307.579 275.169Z" fill="#EFAC7F"/>
<path d="M297.73 258.925C297.73 258.925 292.019 269.116 287.915 269.594C283.811 270.073 283.298 275.477 283.298 275.477C283.298 275.477 284.769 262.994 288.804 260.6C292.84 258.172 297.73 258.925 297.73 258.925Z" fill="#282828"/>
<path d="M259.909 507.717C254.608 508.675 251.086 505.597 249.239 503.271C247.905 505.905 247.221 509.803 248.213 511.992C249.102 513.907 251.633 513.838 253.651 513.907C255.771 513.975 257.412 512.813 258.473 510.966C258.986 510.077 259.499 509.017 259.909 507.717Z" fill="#8B7AFC"/>
<path d="M305.151 506.965C299.303 508.469 294.994 507.443 292.566 506.486C291.951 508.264 291.13 510.453 291.54 511.718C292.088 513.291 292.84 513.633 293.524 513.633C298.859 513.77 313.051 513.975 317.121 514.009C317.702 514.009 318.01 513.36 317.634 512.915C316.642 511.718 305.596 507.238 305.151 506.965Z" fill="#8B7AFC"/>
<path d="M288.976 272.125C289.317 273.938 288.634 275.579 287.471 275.818C286.308 276.058 285.111 274.793 284.769 272.98C284.427 271.168 285.111 269.526 286.274 269.287C287.437 269.047 288.668 270.313 288.976 272.125Z" fill="#EFAC7F"/>
<path d="M269.211 277.289C269.211 277.289 283.54 292.678 285.66 298.868C287.781 305.058 283.574 313.95 277.76 314.326C271.947 314.702 259.02 287.036 259.02 287.036L269.211 277.289Z" fill="#00B899"/>
<path d="M285.486 82.8033L269.31 86.3257C265.411 87.1806 261.581 84.7184 260.76 80.8198L259.256 73.8775C258.401 69.9789 260.863 66.1487 264.762 65.3279L280.937 61.8055C284.836 60.9506 288.666 63.4128 289.487 67.3114L290.992 74.2537C291.847 78.1181 289.384 81.9483 285.486 82.8033Z" fill="#DCD7FF"/>
<path d="M260.899 77.0579L253.957 88.2749L264.593 83.6923L260.899 77.0579Z" fill="#DCD7FF"/>
<path d="M268.732 73.9458L271.433 73.2961C271.433 73.2961 274.272 69.9788 274.169 69.0555C274.066 68.1321 273.075 66.3538 273.553 65.9776C274.032 65.6356 275.092 65.1911 276.084 66.217C276.802 66.9694 277.076 70.2182 277.452 70.355C277.691 70.4576 279.23 70.1156 280.393 69.842C281.145 69.671 281.932 69.9104 282.411 70.4918C282.753 70.9022 282.753 71.4494 282.445 71.8597L281.966 72.5095L282.582 73.0225C283.026 73.3987 283.095 74.1168 282.719 74.5614L282.308 75.0402L282.719 75.348C283.232 75.7241 283.334 76.4765 282.89 76.9895L282.548 77.3657L282.65 77.4683C283.026 77.9128 283.026 78.5284 282.616 78.9388L282.24 79.315L275.058 81.0591C274.374 81.2301 273.69 81.2643 273.006 81.1275L270.373 81.3327C270.099 81.3669 269.826 81.1617 269.757 80.8881L268.321 74.5614C268.253 74.322 268.424 74.0142 268.732 73.9458Z" fill="#8B7AFC"/>
<path d="M336.167 0.727396C350.667 3.42906 361.064 12.8336 359.422 21.7593C358.601 26.2051 354.908 29.6933 349.607 31.7452L353.061 45.9717L342.562 33.4551C338.732 33.9339 334.526 33.8313 330.148 33.0106C315.648 30.3089 305.252 20.9044 306.894 11.9786C308.569 3.08708 321.667 -1.97427 336.167 0.727396Z" fill="#62BDF3"/>
<path d="M342.801 20.3229C340.578 24.9739 335.004 26.9232 330.387 24.7003C325.771 22.4774 323.787 16.9031 326.044 12.2863C328.267 7.63535 333.841 5.68604 338.458 7.90893C343.075 10.1318 345.058 15.6719 342.801 20.3229Z" fill="#3797DB"/>
<path d="M329.294 15.4668C328.097 17.9291 329.157 20.9043 331.619 22.1013C334.081 23.2982 337.057 22.2381 338.254 19.7758L329.294 15.4668Z" fill="#EFEFEF"/>
<path d="M548.165 268.431L544.984 268.773L543.89 263.644L539.136 263.575L537.666 259.882L535.819 260.6L537.734 265.525L542.248 265.627L543.377 270.928L548.199 270.449L548.165 268.431Z" fill="#DCD7FF"/>
<path d="M529.698 187.416L522.174 184.133L520.464 189.297L518.002 188.476L520.601 180.576L528.056 183.825L529.971 177.703L536.811 180.576L539.649 174.557L542.009 175.651L538.145 183.962L531.613 181.226L529.698 187.416Z" fill="#00B899"/>
</svg>
