<svg width="1440" height="524" viewBox="0 0 1440 524" fill="none" xmlns="http://www.w3.org/2000/svg">
<path d="M1440 524C1440 454.513 1364.14 387.873 1229.12 338.738C1094.09 289.604 910.956 262 720 262C529.044 262 345.909 289.603 210.883 338.738C75.857 387.873 2.88335e-05 454.513 0 524L1440 524Z" fill="#3E3E3E"/>
<path fill-rule="evenodd" clip-rule="evenodd" d="M542 387H899C899 404.673 884.673 419 867 419H574C556.327 419 542 404.673 542 387Z" fill="url(#paint0_linear)"/>
<path fill-rule="evenodd" clip-rule="evenodd" d="M542 387H899C899 369.327 884.673 355 867 355H574C556.327 355 542 369.327 542 387Z" fill="url(#paint1_linear)"/>
<rect x="571" y="381" width="301" height="14" rx="7" fill="#202020"/>
<path d="M581.822 392.094L580.51 2.50357L862.777 2.90546L864.089 392.496L581.822 392.094Z" fill="#00B899" stroke="#3B9067" stroke-width="5"/>
<path d="M834.301 392.49L610.463 392.154L609.317 32.4978L833.155 32.8353L834.301 392.49Z" fill="#4CCDB7" stroke="#3B9167" stroke-width="5"/>
<circle cx="721.5" cy="257.5" r="123.5" fill="#00B899"/>
<path opacity="0.99" d="M717.529 123.75C697.19 123.75 680.702 107.408 680.702 87.2496C680.702 67.0917 697.19 50.75 717.529 50.75C737.868 50.75 754.356 67.0917 754.356 87.2496C754.356 107.408 737.868 123.75 717.529 123.75ZM650.109 18.2735L600.93 18.2735V67.0152C628.091 67.0152 650.109 45.1928 650.109 18.2735ZM792.81 15.9811L841.988 15.9811V64.7228C814.828 64.7228 792.81 42.9004 792.81 15.9811Z" fill="#00B899"/>
<path d="M648 30C646.167 40 633.8 62 607 66" stroke="#3B9067" stroke-width="5"/>
<path d="M794 30C795.833 40 808.2 62 835 66" stroke="#3B9067" stroke-width="5"/>
<path d="M607.5 210C613.833 186.667 652 134 723 134C797 134 827.5 192 834.5 209" stroke="#3B9067" stroke-width="5"/>
<path d="M607.5 305C613.833 328.333 652 381 723 381C797 381 827.5 323 834.5 306" stroke="#3B9067" stroke-width="5"/>
<g clip-path="url(#clip0)">
<path d="M687.773 217.814C687.232 218.355 686.962 219.046 686.962 219.887V235.311C681.972 236.334 677.641 238.258 673.973 241.084V220.069C673.973 219.226 673.703 218.536 673.163 217.993C672.622 217.455 671.93 217.184 671.088 217.184H661.886C661.044 217.184 660.353 217.455 659.812 217.993C659.271 218.536 659 219.226 659 220.069V295.114C659 295.956 659.271 296.647 659.811 297.188C660.353 297.728 661.044 297.999 661.886 297.999H673.882C674.664 297.999 675.34 297.714 675.911 297.143C676.482 296.572 676.768 295.895 676.768 295.114V282.035C676.768 269.348 680.165 261.29 686.96 257.863V295.114C686.96 295.956 687.23 296.648 687.771 297.188C688.313 297.728 689.004 297.999 689.846 297.999H699.047C699.889 297.999 700.58 297.729 701.12 297.188C701.662 296.647 701.932 295.955 701.932 295.114V256.598C706.864 257.921 710.621 261.003 713.207 265.844C715.793 270.686 717.086 277.073 717.086 285.011V295.114C717.086 295.895 717.372 296.572 717.943 297.143C718.515 297.714 719.191 297.999 719.972 297.999H731.429C732.211 297.999 732.873 297.729 733.413 297.188C745.68 285.643 762.846 270.67 784.916 252.27C785.639 251.728 785.999 250.977 785.999 250.014V232.426C785.999 231.162 785.459 230.29 784.375 229.81C783.292 229.209 782.27 229.327 781.308 230.171C759.78 247.728 743.665 261.529 732.961 271.571C731.759 261.349 728.451 253.05 723.04 246.676C717.629 240.303 710.592 236.425 701.933 235.041V219.887C701.933 219.046 701.663 218.354 701.122 217.814C700.582 217.272 699.89 217.001 699.048 217.001H689.849C689.005 217.001 688.314 217.272 687.773 217.814Z" fill="white"/>
</g>
<path d="M607.5 210C613.833 186.667 652 134 723 134C797 134 827.5 192 834.5 209" stroke="#3B9067" stroke-width="5"/>
<circle cx="718" cy="87" r="34.5" fill="#00B899" stroke="#3B9067" stroke-width="5"/>
<defs>
<linearGradient id="paint0_linear" x1="720.5" y1="384.031" x2="720.5" y2="419" gradientUnits="userSpaceOnUse">
<stop stop-color="#343434"/>
<stop offset="1" stop-color="#303030"/>
</linearGradient>
<linearGradient id="paint1_linear" x1="720.5" y1="389.969" x2="720.5" y2="355" gradientUnits="userSpaceOnUse">
<stop stop-color="#343434"/>
<stop offset="1" stop-color="#303030"/>
</linearGradient>
<clipPath id="clip0">
<rect width="127" height="127" fill="white" transform="translate(659 321) rotate(-90)"/>
</clipPath>
</defs>
</svg>
